<svg xmlns="http://www.w3.org/2000/svg" width="24" height="25" viewBox="0 0 24 25" fill="none"><mask id="mask0_171_1016" style="mask-type:alpha" maskUnits="userSpaceOnUse" x="0" y="0" width="24" height="25"><rect y="0.66748" width="24" height="24" fill="#D9D9D9"></rect></mask><g mask="url(#mask0_171_1016)"><path d="M13.725 21.6675L7 14.6675V12.6675H10.5C11.3833 12.6675 12.1458 12.38 12.7875 11.805C13.4292 11.23 13.8167 10.5175 13.95 9.66748H6V7.66748H13.65C13.3667 7.08415 12.9458 6.60498 12.3875 6.22998C11.8292 5.85498 11.2 5.66748 10.5 5.66748H6V3.66748H18V5.66748H14.75C14.9833 5.95081 15.1917 6.25915 15.375 6.59248C15.5583 6.92581 15.7 7.28415 15.8 7.66748H18V9.66748H15.975C15.8417 11.0841 15.2583 12.2716 14.225 13.23C13.1917 14.1883 11.95 14.6675 10.5 14.6675H9.775L16.5 21.6675H13.725Z" fill="#DDAF27"></path></g></svg>