<svg xmlns="http://www.w3.org/2000/svg" width="24" height="25" viewBox="0 0 24 25" fill="none"><mask id="mask0_171_1006" style="mask-type:alpha" maskUnits="userSpaceOnUse" x="0" y="0" width="24" height="25"><rect y="0.66748" width="24" height="24" fill="#D9D9D9"></rect></mask><g mask="url(#mask0_171_1006)"><path d="M14.5 18.6675C13.8 18.6675 13.2083 18.4258 12.725 17.9425C12.2417 17.4591 12 16.8675 12 16.1675C12 15.4675 12.2417 14.8758 12.725 14.3925C13.2083 13.9091 13.8 13.6675 14.5 13.6675C15.2 13.6675 15.7917 13.9091 16.275 14.3925C16.7583 14.8758 17 15.4675 17 16.1675C17 16.8675 16.7583 17.4591 16.275 17.9425C15.7917 18.4258 15.2 18.6675 14.5 18.6675ZM5 22.6675C4.45 22.6675 3.97917 22.4716 3.5875 22.08C3.19583 21.6883 3 21.2175 3 20.6675V6.66748C3 6.11748 3.19583 5.64665 3.5875 5.25498C3.97917 4.86331 4.45 4.66748 5 4.66748H6V2.66748H8V4.66748H16V2.66748H18V4.66748H19C19.55 4.66748 20.0208 4.86331 20.4125 5.25498C20.8042 5.64665 21 6.11748 21 6.66748V20.6675C21 21.2175 20.8042 21.6883 20.4125 22.08C20.0208 22.4716 19.55 22.6675 19 22.6675H5ZM5 20.6675H19V10.6675H5V20.6675Z" fill="#DDAF27"></path></g></svg>