<svg xmlns="http://www.w3.org/2000/svg" xmlns:xlink="http://www.w3.org/1999/xlink" width="253" height="179" viewBox="0 0 253 179" fill="none"><rect x="66.5" width="120" height="120" rx="10" fill="white"></rect><rect x="173.409" y="95.8628" width="93.8182" height="71.7255" transform="rotate(180 173.409 95.8628)" fill="url(#pattern0_112_667)"></rect><path d="M94.9417 156.2H98.8297V173H94.9417V156.2ZM87.3097 173H83.4217V156.2H87.3097V173ZM95.2297 166.112H87.0217V162.824H95.2297V166.112ZM102.541 173V160.088H106.285V173H102.541ZM104.413 158.288C103.725 158.288 103.165 158.088 102.733 157.688C102.301 157.288 102.085 156.792 102.085 156.2C102.085 155.608 102.301 155.112 102.733 154.712C103.165 154.312 103.725 154.112 104.413 154.112C105.101 154.112 105.661 154.304 106.093 154.688C106.525 155.056 106.741 155.536 106.741 156.128C106.741 156.752 106.525 157.272 106.093 157.688C105.677 158.088 105.117 158.288 104.413 158.288ZM114.103 173.192C112.999 173.192 111.935 173.064 110.911 172.808C109.903 172.536 109.103 172.2 108.511 171.8L109.759 169.112C110.351 169.48 111.047 169.784 111.847 170.024C112.663 170.248 113.463 170.36 114.247 170.36C115.111 170.36 115.719 170.256 116.071 170.048C116.439 169.84 116.623 169.552 116.623 169.184C116.623 168.88 116.479 168.656 116.191 168.512C115.919 168.352 115.551 168.232 115.087 168.152C114.623 168.072 114.111 167.992 113.551 167.912C113.007 167.832 112.455 167.728 111.895 167.6C111.335 167.456 110.823 167.248 110.359 166.976C109.895 166.704 109.519 166.336 109.231 165.872C108.959 165.408 108.823 164.808 108.823 164.072C108.823 163.256 109.055 162.536 109.519 161.912C109.999 161.288 110.687 160.8 111.583 160.448C112.479 160.08 113.551 159.896 114.799 159.896C115.679 159.896 116.575 159.992 117.487 160.184C118.399 160.376 119.159 160.656 119.767 161.024L118.519 163.688C117.895 163.32 117.263 163.072 116.623 162.944C115.999 162.8 115.391 162.728 114.799 162.728C113.967 162.728 113.359 162.84 112.975 163.064C112.591 163.288 112.399 163.576 112.399 163.928C112.399 164.248 112.535 164.488 112.807 164.648C113.095 164.808 113.471 164.936 113.935 165.032C114.399 165.128 114.903 165.216 115.447 165.296C116.007 165.36 116.567 165.464 117.127 165.608C117.687 165.752 118.191 165.96 118.639 166.232C119.103 166.488 119.479 166.848 119.767 167.312C120.055 167.76 120.199 168.352 120.199 169.088C120.199 169.888 119.959 170.6 119.479 171.224C118.999 171.832 118.303 172.312 117.391 172.664C116.495 173.016 115.399 173.192 114.103 173.192ZM127.789 173.192C126.269 173.192 125.085 172.808 124.237 172.04C123.389 171.256 122.965 170.096 122.965 168.56V157.232H126.709V168.512C126.709 169.056 126.853 169.48 127.141 169.784C127.429 170.072 127.821 170.216 128.317 170.216C128.909 170.216 129.413 170.056 129.829 169.736L130.837 172.376C130.453 172.648 129.989 172.856 129.445 173C128.917 173.128 128.365 173.192 127.789 173.192ZM120.973 163.256V160.376H129.925V163.256H120.973ZM138.685 173.192C137.309 173.192 136.085 172.904 135.013 172.328C133.957 171.752 133.117 170.968 132.493 169.976C131.885 168.968 131.581 167.824 131.581 166.544C131.581 165.248 131.885 164.104 132.493 163.112C133.117 162.104 133.957 161.32 135.013 160.76C136.085 160.184 137.309 159.896 138.685 159.896C140.045 159.896 141.261 160.184 142.333 160.76C143.405 161.32 144.245 162.096 144.853 163.088C145.461 164.08 145.765 165.232 145.765 166.544C145.765 167.824 145.461 168.968 144.853 169.976C144.245 170.968 143.405 171.752 142.333 172.328C141.261 172.904 140.045 173.192 138.685 173.192ZM138.685 170.12C139.309 170.12 139.869 169.976 140.365 169.688C140.861 169.4 141.253 168.992 141.541 168.464C141.829 167.92 141.973 167.28 141.973 166.544C141.973 165.792 141.829 165.152 141.541 164.624C141.253 164.096 140.861 163.688 140.365 163.4C139.869 163.112 139.309 162.968 138.685 162.968C138.061 162.968 137.501 163.112 137.005 163.4C136.509 163.688 136.109 164.096 135.805 164.624C135.517 165.152 135.373 165.792 135.373 166.544C135.373 167.28 135.517 167.92 135.805 168.464C136.109 168.992 136.509 169.4 137.005 169.688C137.501 169.976 138.061 170.12 138.685 170.12ZM148.267 173V160.088H151.843V163.736L151.339 162.68C151.723 161.768 152.339 161.08 153.187 160.616C154.035 160.136 155.067 159.896 156.283 159.896V163.352C156.123 163.336 155.979 163.328 155.851 163.328C155.723 163.312 155.587 163.304 155.443 163.304C154.419 163.304 153.587 163.6 152.947 164.192C152.323 164.768 152.011 165.672 152.011 166.904V173H148.267ZM160.587 177.848C159.915 177.848 159.251 177.744 158.595 177.536C157.939 177.328 157.403 177.04 156.987 176.672L158.355 174.008C158.643 174.264 158.971 174.464 159.339 174.608C159.723 174.752 160.099 174.824 160.467 174.824C160.995 174.824 161.411 174.696 161.715 174.44C162.035 174.2 162.323 173.792 162.579 173.216L163.251 171.632L163.539 171.224L168.171 160.088H171.771L165.939 173.792C165.523 174.832 165.043 175.648 164.499 176.24C163.971 176.832 163.379 177.248 162.723 177.488C162.083 177.728 161.371 177.848 160.587 177.848ZM162.795 173.504L157.035 160.088H160.899L165.363 170.888L162.795 173.504Z" fill="white"></path><defs><pattern id="pattern0_112_667" patternContentUnits="objectBoundingBox" width="1" height="1"><use xlink:href="#image0_112_667" transform="matrix(-0.00296119 0 0 -0.00387329 1.37097 1.40506)"></use></pattern><image id="image0_112_667" width="1536" height="1024" preserveAspectRatio="none"></image></defs></svg>