<svg xmlns="http://www.w3.org/2000/svg" width="24" height="25" viewBox="0 0 24 25" fill="none"><mask id="mask0_171_1011" style="mask-type:alpha" maskUnits="userSpaceOnUse" x="0" y="0" width="24" height="25"><rect y="0.66748" width="24" height="24" fill="#D9D9D9"></rect></mask><g mask="url(#mask0_171_1011)"><path d="M15.3 17.3675L16.7 15.9675L13 12.2675V7.66748H11V13.0675L15.3 17.3675ZM12 22.6675C10.6167 22.6675 9.31667 22.405 8.1 21.88C6.88333 21.355 5.825 20.6425 4.925 19.7425C4.025 18.8425 3.3125 17.7841 2.7875 16.5675C2.2625 15.3508 2 14.0508 2 12.6675C2 11.2841 2.2625 9.98415 2.7875 8.76748C3.3125 7.55081 4.025 6.49248 4.925 5.59248C5.825 4.69248 6.88333 3.97998 8.1 3.45498C9.31667 2.92998 10.6167 2.66748 12 2.66748C13.3833 2.66748 14.6833 2.92998 15.9 3.45498C17.1167 3.97998 18.175 4.69248 19.075 5.59248C19.975 6.49248 20.6875 7.55081 21.2125 8.76748C21.7375 9.98415 22 11.2841 22 12.6675C22 14.0508 21.7375 15.3508 21.2125 16.5675C20.6875 17.7841 19.975 18.8425 19.075 19.7425C18.175 20.6425 17.1167 21.355 15.9 21.88C14.6833 22.405 13.3833 22.6675 12 22.6675Z" fill="#DDAF27"></path></g></svg>