<svg xmlns="http://www.w3.org/2000/svg" width="12" height="19" viewBox="0 0 12 19" fill="none"><path d="M7.725 18.6675L1 11.6675V9.66748H4.5C5.38333 9.66748 6.14583 9.37998 6.7875 8.80498C7.42917 8.22998 7.81667 7.51748 7.95 6.66748H0V4.66748H7.65C7.36667 4.08415 6.94583 3.60498 6.3875 3.22998C5.82917 2.85498 5.2 2.66748 4.5 2.66748H0V0.66748H12V2.66748H8.75C8.98333 2.95081 9.19167 3.25915 9.375 3.59248C9.55833 3.92581 9.7 4.28415 9.8 4.66748H12V6.66748H9.975C9.84167 8.08415 9.25833 9.27165 8.225 10.23C7.19167 11.1883 5.95 11.6675 4.5 11.6675H3.775L10.5 18.6675H7.725Z" fill="#8C0000"></path></svg>