<svg xmlns="http://www.w3.org/2000/svg" width="18" height="21" viewBox="0 0 18 21" fill="none"><path d="M11.5 16.6675C10.8 16.6675 10.2083 16.4258 9.725 15.9425C9.24167 15.4591 9 14.8675 9 14.1675C9 13.4675 9.24167 12.8758 9.725 12.3925C10.2083 11.9091 10.8 11.6675 11.5 11.6675C12.2 11.6675 12.7917 11.9091 13.275 12.3925C13.7583 12.8758 14 13.4675 14 14.1675C14 14.8675 13.7583 15.4591 13.275 15.9425C12.7917 16.4258 12.2 16.6675 11.5 16.6675ZM2 20.6675C1.45 20.6675 0.979167 20.4716 0.5875 20.08C0.195833 19.6883 0 19.2175 0 18.6675V4.66748C0 4.11748 0.195833 3.64665 0.5875 3.25498C0.979167 2.86331 1.45 2.66748 2 2.66748H3V0.66748H5V2.66748H13V0.66748H15V2.66748H16C16.55 2.66748 17.0208 2.86331 17.4125 3.25498C17.8042 3.64665 18 4.11748 18 4.66748V18.6675C18 19.2175 17.8042 19.6883 17.4125 20.08C17.0208 20.4716 16.55 20.6675 16 20.6675H2ZM2 18.6675H16V8.66748H2V18.6675Z" fill="#8C0000"></path></svg>