<svg xmlns="http://www.w3.org/2000/svg" width="20" height="21" viewBox="0 0 20 21" fill="none"><path d="M13.3 15.3675L14.7 13.9675L11 10.2675V5.66748H9V11.0675L13.3 15.3675ZM10 20.6675C8.61667 20.6675 7.31667 20.405 6.1 19.88C4.88333 19.355 3.825 18.6425 2.925 17.7425C2.025 16.8425 1.3125 15.7841 0.7875 14.5675C0.2625 13.3508 0 12.0508 0 10.6675C0 9.28415 0.2625 7.98415 0.7875 6.76748C1.3125 5.55081 2.025 4.49248 2.925 3.59248C3.825 2.69248 4.88333 1.97998 6.1 1.45498C7.31667 0.92998 8.61667 0.66748 10 0.66748C11.3833 0.66748 12.6833 0.92998 13.9 1.45498C15.1167 1.97998 16.175 2.69248 17.075 3.59248C17.975 4.49248 18.6875 5.55081 19.2125 6.76748C19.7375 7.98415 20 9.28415 20 10.6675C20 12.0508 19.7375 13.3508 19.2125 14.5675C18.6875 15.7841 17.975 16.8425 17.075 17.7425C16.175 18.6425 15.1167 19.355 13.9 19.88C12.6833 20.405 11.3833 20.6675 10 20.6675Z" fill="#8C0000"></path></svg>